<?xml version="1.0" encoding="UTF-8" standalone="no"?>
<svg
   width="16"
   height="16"
   version="1.1"
   id="svg1"
   xml:space="preserve"
   xmlns="http://www.w3.org/2000/svg"
   xmlns:svg="http://www.w3.org/2000/svg"><defs
     id="defs1" /><g
     style="fill:#000000;stroke:#8da5f3;stroke-width:34.3402;stroke-dasharray:none;stroke-opacity:1"
     id="g1"
     transform="matrix(0.02286395,0.02286395,-0.02286395,0.02286395,8.7393466,-3.325331)"><path
       id="path1"
       style="stroke:#8da5f3;stroke-width:34.3402;stroke-dasharray:none;stroke-opacity:1"
       d="m 201.8147,12.733052 c -9.08562,8.36575 -17.19516,20.722801 -23.91866,36.646801 -10.467,24.791 -17.01685,57.217357 -17.81085,87.858357 -4.631,1.949 -8.19377,6.03351 -9.22577,11.19051 l -4.22848,21.14239 c -1.746,8.732 -2.60542,17.70951 -2.60542,26.60951 v 187.33434 c 0,8.287 6.50389,15.05771 14.69289,15.46171 0.253,0.026 0.50881,0 0.76881,0 4.687,0 8.49967,3.81266 8.49967,8.49966 0,4.687 -3.81267,8.49967 -8.49967,8.49967 -12.958,0 -23.49154,10.53354 -23.49154,23.49154 0,12.958 10.57625,23.53425 23.53425,23.53425 H 303.469 c 12.958,0 23.53425,-10.57625 23.53425,-23.53425 0,-12.958 -10.53354,-23.49154 -23.49154,-23.49154 -4.687,0 -8.49967,-3.81267 -8.49967,-8.49967 0,-4.687 3.81267,-8.49966 8.49967,-8.49966 0.26,0 0.51581,0.026 0.76881,0 8.189,-0.404 14.69289,-7.17471 14.69289,-15.46171 v -4.95458 c -4.92419,0.94821 -9.96799,1.19585 -14.94916,0.68339 v 4.27119 l -0.0427,0.0427 0.0427,0.0427 -0.0427,0.0427 -0.0427,0.0427 v 0.0854 l -0.0427,0.0427 -0.0427,0.0427 -0.0427,0.0427 -0.0427,0.0427 h -0.0854 l -0.0427,0.0427 -0.0427,0.0427 -0.0427,-0.0427 -0.0427,0.0427 H 159.48722 l -0.0427,-0.0427 -0.0427,0.0427 -0.0427,-0.0427 -0.0427,-0.0427 h -0.0854 l -0.0427,-0.0427 -0.0427,-0.0427 -0.0427,-0.0427 -0.0427,-0.0427 v -0.0854 l -0.0427,-0.0427 -0.0427,-0.0427 0.0427,-0.0427 -0.0427,-0.0427 V 196.18062 c 0,-7.915 0.79615,-15.85368 2.34915,-23.61968 l 4.22848,-21.14238 0.0427,-0.0427 v -0.0854 l 0.0427,-0.0427 0.0427,-0.0427 0.0427,-0.0427 0.0427,-0.0427 0.0427,-0.0427 0.0427,-0.0427 h 0.0854 l 0.0427,-0.0427 0.0427,0.0427 0.0427,-0.0427 h 130.86923 l 0.0427,0.0427 0.0427,-0.0427 0.0427,0.0427 h 0.0854 l 0.0427,0.0427 0.0427,0.0427 0.0427,0.0427 0.0427,0.0427 0.0427,0.0427 0.0427,0.0427 v 0.0854 l 0.0427,0.0427 1.40949,7.04746 c 4.96806,-1.0345 10.07304,-1.31393 15.12001,-0.85424 l -1.83661,-9.18306 c -1.032,-5.158 -4.59477,-9.24151 -9.22577,-11.19051 -0.794,-30.641 -7.34385,-63.067357 -17.81085,-87.858357 -13.446,-31.848 -32.46142,-49.41765596 -53.60342,-49.41765596 -10.571,0 -20.59914,4.40510486 -29.68477,12.77085496 z m 10.0373,11.062379 c 5.63679,-5.221863 12.19659,-8.798649 19.64747,-8.798649 31.01,0 54.46098,62.389782 56.33698,121.002778 H 175.16248 c 0.92,-28.356 6.9335,-58.041178 16.5295,-80.768178 3.96375,-9.38875 10.76536,-22.732845 20.16002,-31.435951 z M 181.39842,399.01938 h 100.20209 c -1.027,2.638 -1.58034,5.50266 -1.58034,8.49966 0,2.997 0.55334,5.86167 1.58034,8.49967 H 181.39842 c 1.027,-2.638 1.58034,-5.50267 1.58034,-8.49967 0,-2.997 -0.55334,-5.86166 -1.58034,-8.49966 z m -27.89086,34.46849 c 1.53912,-1.53912 3.63616,-2.47729 5.97966,-2.47729 h 144.02449 c 4.687,0 8.49967,3.81267 8.49967,8.49967 0,4.687 -3.81267,8.49967 -8.49967,8.49967 H 159.48722 c -4.687,0 -8.49967,-3.81267 -8.49967,-8.49967 0,-2.3435 0.98088,-4.48325 2.52001,-6.02238 z" /></g><path
     id="rect1"
     style="fill:#8da5f3;stroke-width:1.08701;stroke-linejoin:round;paint-order:stroke fill markers"
     d="m 10.974609,7.8691406 c -0.33606,0 -0.605468,0.2694087 -0.605468,0.6054688 V 10.580078 H 8.2636719 c -0.3360601,0 -0.6054688,0.269409 -0.6054688,0.605469 v 0.105469 c 0,0.33606 0.2694087,0.607422 0.6054688,0.607422 h 2.1054691 v 2.103515 c 0,0.33606 0.269408,0.607422 0.605468,0.607422 h 0.105469 c 0.336061,0 0.607422,-0.271362 0.607422,-0.607422 v -2.103515 h 2.103516 c 0.336061,0 0.607422,-0.271362 0.607422,-0.607422 v -0.105469 c 0,-0.33606 -0.271361,-0.605469 -0.607422,-0.605469 H 11.6875 V 8.4746094 c 0,-0.3360601 -0.271361,-0.6054688 -0.607422,-0.6054688 z" /></svg>
