<?xml version="1.0" encoding="UTF-8" standalone="no"?>
<svg
   width="16"
   height="16"
   version="1.1"
   id="svg1"
   xml:space="preserve"
   xmlns="http://www.w3.org/2000/svg"
   xmlns:svg="http://www.w3.org/2000/svg"><defs
     id="defs1" /><g
     style="fill:#000000;stroke:#8da5f3;stroke-width:34.3402;stroke-dasharray:none;stroke-opacity:1"
     id="g1"
     transform="matrix(0.02286395,0.02286395,-0.02286395,0.02286395,8.7393466,-3.325331)"><path
       d="m 303.5,416 c -4.687,0 -8.5,-3.813 -8.5,-8.5 0,-4.687 3.813,-8.5 8.5,-8.5 0.26,0 0.516,-0.013 0.769,-0.039 C 312.458,398.557 319,391.787 319,383.5 V 196.175 c 0,-8.9 -0.885,-17.841 -2.631,-26.573 l -4.229,-21.141 c -1.032,-5.158 -4.594,-9.292 -9.225,-11.241 C 302.121,106.579 295.603,74.178 285.136,49.387 271.69,17.539 252.642,0 231.5,0 c -21.142,0 -40.19,17.539 -53.637,49.387 -10.467,24.791 -16.985,57.192 -17.779,87.833 -4.631,1.949 -8.193,6.084 -9.225,11.241 l -4.229,21.141 c -1.746,8.732 -2.631,17.673 -2.631,26.573 V 383.5 c 0,8.287 6.542,15.057 14.731,15.461 0.253,0.026 0.509,0.039 0.769,0.039 4.687,0 8.5,3.813 8.5,8.5 0,4.687 -3.813,8.5 -8.5,8.5 -12.958,0 -23.5,10.542 -23.5,23.5 0,12.958 10.542,23.5 23.5,23.5 h 144 c 12.958,0 23.5,-10.542 23.5,-23.5 0,-12.958 -10.541,-23.5 -23.499,-23.5 z M 191.682,55.222 C 198.024,40.2 211.631,15 231.5,15 c 31.01,0 54.499,62.387 56.375,121 H 175.138 c 0.92,-28.356 6.948,-58.051 16.544,-80.778 z M 159,196.175 c 0,-7.915 0.787,-15.866 2.34,-23.632 l 4.229,-21.141 c 0.047,-0.233 0.253,-0.402 0.49,-0.402 h 130.883 c 0.237,0 0.443,0.169 0.49,0.402 l 4.229,21.141 c 1.553,7.766 2.34,15.717 2.34,23.632 V 383.5 c 0,0.275 -0.225,0.5 -0.5,0.5 h -144 c -0.275,0 -0.5,-0.225 -0.5,-0.5 V 196.175 Z M 181.403,399 h 100.195 c -1.027,2.638 -1.597,5.503 -1.597,8.5 0,2.997 0.57,5.862 1.597,8.5 H 181.403 c 1.027,-2.638 1.597,-5.503 1.597,-8.5 0,-2.997 -0.57,-5.862 -1.597,-8.5 z M 303.5,448 h -144 c -4.687,0 -8.5,-3.813 -8.5,-8.5 0,-4.687 3.813,-8.5 8.5,-8.5 h 144 c 4.687,0 8.5,3.813 8.5,8.5 0,4.687 -3.813,8.5 -8.5,8.5 z"
       id="path1"
       style="stroke:#8da5f3;stroke-width:34.3402;stroke-dasharray:none;stroke-opacity:1" /></g></svg>
