<?xml version="1.0" encoding="UTF-8" standalone="no"?>
<svg
   width="16"
   height="16"
   version="1.1"
   id="svg1"
   xml:space="preserve"
   xmlns="http://www.w3.org/2000/svg"
   xmlns:svg="http://www.w3.org/2000/svg"><defs
     id="defs1" /><g
     style="fill:#e0e0e0;fill-opacity:1;stroke:none;stroke-width:1.2163;stroke-linejoin:round;stroke-dasharray:none;stroke-opacity:1"
     id="g2"
     transform="matrix(0.82216361,0,0,0.82216361,1.4226911,1.4226911)"><path
       d="m 13,1 h -2 v 2 h 2 c 0.5523,0 1,0.44772 1,1 0,0.55228 -0.4477,1 -1,1 H 2 V 7 H 13 C 14.6569,7 16,5.65685 16,4 16,2.34315 14.6569,1 13,1 Z"
       fill="#000000"
       id="path1-2"
       style="fill:#e0e0e0;fill-opacity:1;stroke:none;stroke-width:1.2163;stroke-linejoin:round;stroke-dasharray:none;stroke-opacity:1" /><path
       d="m 0,11 h 11 c 0.5523,0 1,0.4477 1,1 0,0.5523 -0.4477,1 -1,1 H 9 v 2 h 2 c 1.6569,0 3,-1.3431 3,-3 0,-1.6569 -1.3431,-3 -3,-3 H 0 Z"
       fill="#000000"
       id="path2"
       style="fill:#e0e0e0;fill-opacity:1;stroke:none;stroke-width:1.2163;stroke-linejoin:round;stroke-dasharray:none;stroke-opacity:1" /></g></svg>
